<svg width="12" height="12" viewBox="0 0 12 12" fill="none" xmlns="http://www.w3.org/2000/svg">
<path d="M6.1395 4.4165L6 4.556L5.8605 4.4165C5.73283 4.28725 5.58078 4.18462 5.41316 4.11458C5.24553 4.04454 5.06567 4.00847 4.884 4.00847C4.70233 4.00847 4.52246 4.04454 4.35484 4.11458C4.18721 4.18462 4.03516 4.28725 3.9075 4.4165C3.77817 4.54417 3.67548 4.69626 3.60539 4.86393C3.5353 5.0316 3.49921 5.21152 3.49921 5.39325C3.49921 5.57498 3.5353 5.7549 3.60539 5.92258C3.67548 6.09025 3.77817 6.24233 3.9075 6.37L6 8.463L8.093 6.37C8.22233 6.24233 8.32501 6.09025 8.3951 5.92258C8.46519 5.7549 8.50128 5.57498 8.50128 5.39325C8.50128 5.21152 8.46519 5.0316 8.3951 4.86393C8.32501 4.69626 8.22233 4.54417 8.093 4.4165C7.96529 4.28723 7.8132 4.1846 7.64553 4.11455C7.47786 4.0445 7.29796 4.00843 7.11625 4.00843C6.93453 4.00843 6.75463 4.0445 6.58696 4.11455C6.4193 4.1846 6.2672 4.28723 6.1395 4.4165Z" fill="#E5E5E5"/>
<path d="M6 1C3.243 1 1 3.243 1 6C1 8.757 3.243 11 6 11C8.757 11 11 8.757 11 6C11 3.243 8.757 1 6 1ZM6 10C3.7945 10 2 8.2055 2 6C2 3.7945 3.7945 2 6 2C8.2055 2 10 3.7945 10 6C10 8.2055 8.2055 10 6 10Z" fill="#E5E5E5"/>
</svg>
