<svg width="116" height="116" viewBox="0 0 116 116" fill="none" xmlns="http://www.w3.org/2000/svg">
<path fill-rule="evenodd" clip-rule="evenodd" d="M58 4.83334C28.6375 4.83334 4.83337 28.6375 4.83337 58C4.83337 87.3625 28.6375 111.167 58 111.167C87.3625 111.167 111.167 87.3625 111.167 58C111.167 28.6375 87.3625 4.83334 58 4.83334ZM75.9172 46.9172C76.7976 46.0056 77.2848 44.7847 77.2738 43.5174C77.2628 42.2501 76.7545 41.0379 75.8583 40.1417C74.9622 39.2456 73.7499 38.7373 72.4826 38.7262C71.2154 38.7152 69.9945 39.2024 69.0829 40.0828L58 51.1657L46.9172 40.0828C46.4713 39.6212 45.938 39.253 45.3483 38.9997C44.7586 38.7464 44.1244 38.613 43.4826 38.6075C42.8409 38.6019 42.2044 38.7242 41.6104 38.9672C41.0164 39.2102 40.4768 39.5691 40.023 40.0229C39.5692 40.4767 39.2103 41.0164 38.9672 41.6104C38.7242 42.2044 38.6019 42.8408 38.6075 43.4826C38.6131 44.1244 38.7464 44.7586 38.9997 45.3483C39.253 45.938 39.6212 46.4713 40.0829 46.9172L51.1657 58L40.0829 69.0828C39.6212 69.5287 39.253 70.062 38.9997 70.6517C38.7464 71.2414 38.6131 71.8756 38.6075 72.5174C38.6019 73.1592 38.7242 73.7956 38.9672 74.3896C39.2103 74.9836 39.5692 75.5233 40.023 75.9771C40.4768 76.4309 41.0164 76.7898 41.6104 77.0328C42.2044 77.2758 42.8409 77.3981 43.4826 77.3926C44.1244 77.387 44.7586 77.2536 45.3483 77.0003C45.938 76.747 46.4713 76.3788 46.9172 75.9172L58 64.8343L69.0829 75.9172C69.9945 76.7976 71.2154 77.2848 72.4826 77.2738C73.7499 77.2627 74.9622 76.7544 75.8583 75.8583C76.7545 74.9622 77.2628 73.7499 77.2738 72.4826C77.2848 71.2153 76.7976 69.9944 75.9172 69.0828L64.8344 58L75.9172 46.9172Z" fill="#FA4246"/>
</svg>
