<svg width="34" height="34" viewBox="0 0 34 34" fill="none" xmlns="http://www.w3.org/2000/svg">
<path d="M7.98434 7.98434C9.25287 6.71559 10.7749 5.72884 12.4509 5.08861C14.1269 4.44837 15.9192 4.16907 17.7105 4.26895C19.5019 4.36883 21.252 4.84566 22.8465 5.66825C24.4409 6.49084 25.8438 7.64068 26.9634 9.04259L19.0032 17L26.9634 24.9574C25.8806 26.3109 24.5333 27.4294 23.0036 28.2445C21.474 29.0597 19.7942 29.5544 18.0669 29.6984C16.3396 29.8424 14.6011 29.6328 12.9576 29.0822C11.314 28.5317 9.80003 27.6518 8.50803 26.4964C7.21604 25.3409 6.1732 23.9342 5.44323 22.3621C4.71326 20.7901 4.3115 19.0856 4.26248 17.3531C4.21347 15.6205 4.51824 13.8961 5.15816 12.2852C5.79809 10.6744 6.75973 9.21097 7.98434 7.98434V7.98434Z" stroke="black" stroke-width="2" stroke-linecap="round" stroke-linejoin="round"/>
<path d="M16.2917 12.0417C17.0741 12.0417 17.7083 11.4074 17.7083 10.625C17.7083 9.84261 17.0741 9.20834 16.2917 9.20834C15.5093 9.20834 14.875 9.84261 14.875 10.625C14.875 11.4074 15.5093 12.0417 16.2917 12.0417Z" fill="black" stroke="black" stroke-width="2" stroke-linecap="round" stroke-linejoin="round"/>
</svg>
