<svg width="12" height="12" viewBox="0 0 12 12" fill="none" xmlns="http://www.w3.org/2000/svg">
<path d="M10.5227 1.47727C10.4705 1.42503 10.4085 1.38359 10.3403 1.35532C10.272 1.32705 10.1989 1.3125 10.125 1.3125H10.1232L7.13264 1.32192C7.05457 1.32217 6.97742 1.33867 6.90608 1.37037C6.83473 1.40207 6.77077 1.44828 6.71827 1.50605L3.36506 5.1945L3.28791 5.11734C3.11191 4.94184 2.8735 4.84329 2.62496 4.84331C2.37641 4.84333 2.13802 4.94191 1.96205 5.11744L1.17999 5.8995C1.09291 5.98655 1.02384 6.0899 0.976707 6.20365C0.929579 6.3174 0.905319 6.43932 0.905315 6.56244C0.905311 6.68557 0.929561 6.80749 0.976682 6.92124C1.0238 7.03499 1.09287 7.13835 1.17994 7.22541L1.83891 7.88447L0.942986 8.7803C0.767424 8.95625 0.668827 9.19467 0.668827 9.44323C0.668827 9.69179 0.767424 9.9302 0.942986 10.1062L1.89385 11.057C1.9809 11.144 2.08425 11.2131 2.198 11.2602C2.31174 11.3073 2.43366 11.3316 2.55677 11.3316C2.67989 11.3316 2.80181 11.3073 2.91555 11.2602C3.0293 11.2131 3.13265 11.144 3.2197 11.057L4.11558 10.1611L4.77464 10.8202C4.95063 10.9957 5.18903 11.0942 5.43757 11.0942C5.68611 11.0942 5.92449 10.9956 6.10045 10.8201L6.88252 10.038C6.96959 9.95095 7.03867 9.8476 7.0858 9.73385C7.13292 9.6201 7.15718 9.49818 7.15719 9.37506C7.15719 9.25193 7.13294 9.13001 7.08582 9.01626C7.0387 8.90251 6.96963 8.79915 6.88256 8.71209L6.80545 8.63498L10.494 5.28183C10.5517 5.22931 10.5979 5.16533 10.6296 5.09397C10.6613 5.02262 10.6778 4.94544 10.6781 4.86736L10.6875 1.87678C10.6877 1.80262 10.6733 1.72914 10.645 1.66057C10.6167 1.59201 10.5752 1.52971 10.5227 1.47727ZM5.4375 9.89203L4.77849 9.23297C4.69143 9.14591 4.58809 9.07685 4.47434 9.02973C4.3606 8.98262 4.23869 8.95837 4.11558 8.95837C3.99247 8.95837 3.87056 8.98262 3.75681 9.02973C3.64307 9.07685 3.53972 9.14591 3.45267 9.23297L2.55675 10.1289L1.87106 9.44325L2.76699 8.54733C2.94254 8.37138 3.04114 8.13298 3.04114 7.88442C3.04114 7.63587 2.94254 7.39746 2.76699 7.22152L2.10802 6.5625L2.625 6.04547L4.28963 7.71014L4.28977 7.71023L4.28986 7.71038L5.95453 9.375L5.4375 9.89203ZM9.55383 4.61606L6.00905 7.83858L5.48302 7.3125L7.89774 4.89773C8.00181 4.79196 8.05986 4.64934 8.05926 4.50095C8.05865 4.35256 7.99944 4.21042 7.89451 4.10549C7.78958 4.00056 7.64744 3.94135 7.49905 3.94074C7.35066 3.94014 7.20805 3.9982 7.10227 4.10227L4.6875 6.51698L4.16142 5.99091L7.38394 2.44617L9.56072 2.43928L9.55383 4.61606Z" fill="#E5E5E5"/>
</svg>
