<svg width="122" height="122" viewBox="0 0 122 122" fill="none" xmlns="http://www.w3.org/2000/svg">
<path d="M76.758 6.63553C74.7055 4.53505 72.2539 2.86602 69.5472 1.72651C66.8405 0.587003 63.9333 0 60.9965 0C58.0597 0 55.1525 0.587003 52.4458 1.72651C49.7391 2.86602 47.2874 4.53505 45.2349 6.63553L40.492 11.5005L33.7054 11.4166C30.7678 11.3818 27.8528 11.9348 25.132 13.043C22.4112 14.1512 19.9394 15.7922 17.862 17.8696C15.7846 19.947 14.1436 22.4188 13.0354 25.1396C11.9272 27.8605 11.3742 30.7754 11.409 33.7131L11.4852 40.4996L6.63552 45.2426C4.53505 47.2951 2.86602 49.7467 1.72651 52.4534C0.587003 55.1601 0 58.0673 0 61.0041C0 63.9409 0.587003 66.8481 1.72651 69.5548C2.86602 72.2615 4.53505 74.7132 6.63552 76.7657L11.4929 81.5086L11.409 88.2952C11.3742 91.2328 11.9272 94.1478 13.0354 96.8686C14.1436 99.5895 15.7846 102.061 17.862 104.139C19.9394 106.216 22.4112 107.857 25.132 108.965C27.8528 110.073 30.7678 110.626 33.7054 110.592L40.492 110.515L45.2349 115.365C47.2874 117.466 49.7391 119.135 52.4458 120.274C55.1525 121.414 58.0597 122.001 60.9965 122.001C63.9333 122.001 66.8405 121.414 69.5472 120.274C72.2539 119.135 74.7055 117.466 76.758 115.365L81.501 110.508L88.2875 110.592C91.2252 110.626 94.1402 110.073 96.861 108.965C99.5818 107.857 102.054 106.216 104.131 104.139C106.208 102.061 107.849 99.5895 108.958 96.8686C110.066 94.1478 110.619 91.2328 110.584 88.2952L110.508 81.5086L115.357 76.7657C117.458 74.7132 119.127 72.2615 120.266 69.5548C121.406 66.8481 121.993 63.9409 121.993 61.0041C121.993 58.0673 121.406 55.1601 120.266 52.4534C119.127 49.7467 117.458 47.2951 115.357 45.2426L110.5 40.4996L110.584 33.7131C110.619 30.7754 110.066 27.8605 108.958 25.1396C107.849 22.4188 106.208 19.947 104.131 17.8696C102.054 15.7922 99.5818 14.1512 96.861 13.043C94.1402 11.9348 91.2252 11.3818 88.2875 11.4166L81.501 11.4929L76.758 6.64315V6.63553ZM78.9465 52.2655L56.0705 75.1415C55.7164 75.4965 55.2956 75.7782 54.8324 75.9704C54.3692 76.1627 53.8727 76.2616 53.3712 76.2616C52.8697 76.2616 52.3731 76.1627 51.9099 75.9704C51.4467 75.7782 51.026 75.4965 50.6718 75.1415L39.2338 63.7035C38.8793 63.349 38.5981 62.9282 38.4063 62.465C38.2144 62.0018 38.1157 61.5054 38.1157 61.0041C38.1157 60.5028 38.2144 60.0064 38.4063 59.5432C38.5981 59.0801 38.8793 58.6592 39.2338 58.3048C39.5883 57.9503 40.0091 57.6691 40.4723 57.4772C40.9354 57.2854 41.4319 57.1866 41.9332 57.1866C42.4345 57.1866 42.9309 57.2854 43.3941 57.4772C43.8572 57.6691 44.2781 57.9503 44.6325 58.3048L53.3712 67.051L73.5478 46.8668C74.2637 46.1508 75.2347 45.7486 76.2471 45.7486C77.2596 45.7486 78.2306 46.1508 78.9465 46.8668C79.6624 47.5827 80.0646 48.5537 80.0646 49.5661C80.0646 50.5786 79.6624 51.5496 78.9465 52.2655V52.2655Z" fill="#FBD102"/>
</svg>
