<svg width="20" height="20" viewBox="0 0 20 20" fill="none" xmlns="http://www.w3.org/2000/svg">
<path d="M14.9541 11.8975C14.655 10.8132 14.0084 9.85693 13.1135 9.17547C12.2186 8.49401 11.1248 8.12497 10 8.12497C8.87517 8.12497 7.78141 8.49401 6.88652 9.17547C5.99162 9.85693 5.34501 10.8132 5.0459 11.8975L4.33308 14.4815C4.2051 14.9454 4.18601 15.4327 4.27729 15.9052C4.36857 16.3777 4.56777 16.8228 4.85934 17.2057C5.15092 17.5886 5.52699 17.899 5.95824 18.1127C6.38949 18.3263 6.86427 18.4375 7.34554 18.4375H12.6545C13.1357 18.4375 13.6105 18.3263 14.0418 18.1127C14.473 17.899 14.8491 17.5886 15.1407 17.2057C15.4322 16.8228 15.6314 16.3777 15.7227 15.9052C15.814 15.4327 15.7949 14.9454 15.6669 14.4815L14.9541 11.8975ZM14.1462 16.4483C13.972 16.6789 13.7465 16.8657 13.4876 16.994C13.2287 17.1223 12.9434 17.1886 12.6545 17.1875H7.34554C7.05677 17.1875 6.7719 17.1208 6.51315 16.9926C6.25439 16.8644 6.02874 16.6782 5.85379 16.4484C5.67885 16.2187 5.55933 15.9516 5.50456 15.6681C5.44979 15.3846 5.46125 15.0922 5.53804 14.8139L6.25086 12.2299C6.47723 11.4093 6.96656 10.6857 7.6438 10.17C8.32103 9.65426 9.14876 9.37498 10 9.37498C10.8512 9.37498 11.679 9.65426 12.3562 10.17C13.0334 10.6857 13.5228 11.4093 13.7491 12.2299L14.4619 14.8139C14.5399 15.0921 14.5519 15.3847 14.4971 15.6684C14.4423 15.9521 14.3221 16.2192 14.1462 16.4484V16.4483Z" fill="black"/>
<path d="M5.70703 8.99647C5.81578 8.31678 5.67156 7.58916 5.30078 6.94713C4.93 6.3051 4.37187 5.81639 3.72902 5.57073C3.04059 5.3078 2.3384 5.34967 1.75113 5.68858C0.583672 6.36264 0.276445 8.02393 1.06641 9.3919C1.43707 10.0339 1.99523 10.5228 2.63809 10.7683C2.92286 10.8793 3.22555 10.9372 3.53117 10.939C3.91193 10.9404 4.28625 10.8408 4.61598 10.6504C5.20289 10.3115 5.59039 9.72409 5.70703 8.99647ZM4.47266 8.79889C4.4168 9.14768 4.2457 9.42077 3.9909 9.56788C3.73609 9.71498 3.41406 9.72655 3.08398 9.60057C2.70848 9.45717 2.37637 9.16108 2.14879 8.7669C1.71129 8.00909 1.81527 7.09502 2.37613 6.77112C2.51712 6.69111 2.6768 6.64989 2.83891 6.65167C2.99097 6.65324 3.14146 6.68259 3.28297 6.73827C3.65848 6.88174 3.99059 7.1778 4.21816 7.57198C4.44574 7.96616 4.53609 8.40198 4.47266 8.79889Z" fill="black"/>
<path d="M5.84242 6.40691C6.28625 6.76171 6.79308 6.94648 7.30562 6.94644C7.45915 6.94639 7.61222 6.92988 7.76222 6.89718C9.07953 6.61081 9.87824 5.12206 9.54269 3.57851C9.38527 2.85405 9.00254 2.21847 8.46504 1.78874C7.88945 1.32858 7.20765 1.15441 6.54523 1.29847C5.22797 1.5848 4.42925 3.07355 4.76476 4.6171C4.92222 5.34159 5.30496 5.97718 5.84242 6.40691ZM6.8107 2.51995C6.87144 2.50686 6.93341 2.50031 6.99554 2.50042C7.22789 2.50042 7.46687 2.59132 7.68449 2.7653C7.99843 3.01628 8.22457 3.39944 8.32121 3.84425C8.50715 4.69952 8.12957 5.53831 7.49672 5.67589C7.20918 5.73839 6.89886 5.65136 6.623 5.43077C6.30906 5.17976 6.08293 4.79659 5.98629 4.35183C5.80031 3.49632 6.17789 2.65753 6.8107 2.51995Z" fill="black"/>
<path d="M18.2489 5.68858C17.6618 5.34967 16.9593 5.3078 16.271 5.57073C15.6281 5.81631 15.07 6.3051 14.6993 6.94714C14.3286 7.58917 14.1844 8.31694 14.2931 8.99647C14.4095 9.72409 14.797 10.3115 15.3841 10.6504C15.7138 10.8409 16.0881 10.9404 16.4689 10.9391C16.7745 10.9372 17.0772 10.8793 17.362 10.7683C18.0048 10.5228 18.563 10.0339 18.9337 9.3919C19.7236 8.02393 19.4163 6.36264 18.2489 5.68858ZM17.8512 8.7669C17.6236 9.16108 17.2915 9.45717 16.916 9.60057C16.5861 9.72667 16.264 9.71507 16.0092 9.56788C15.7544 9.42069 15.5834 9.14768 15.5274 8.79889C15.4639 8.40198 15.5542 7.96632 15.7818 7.57233C16.0095 7.17835 16.3415 6.8821 16.717 6.73862C16.8585 6.68289 17.009 6.65349 17.1611 6.65186C17.3232 6.65009 17.4829 6.6913 17.6239 6.77131C18.1847 7.09495 18.2888 8.00889 17.8512 8.7669Z" fill="black"/>
<path d="M12.2378 6.89717C12.3878 6.92987 12.5409 6.94638 12.6944 6.94643C13.2069 6.94643 13.7139 6.7617 14.1576 6.4069C14.695 5.97721 15.0778 5.34159 15.2352 4.61713C15.5707 3.07358 14.772 1.58483 13.4548 1.2985C12.7924 1.15452 12.1105 1.32858 11.535 1.78877C10.9975 2.21846 10.6147 2.85409 10.4573 3.5785C10.1218 5.12206 10.9205 6.61081 12.2378 6.89717ZM11.6788 3.84405C11.7754 3.39924 12.0016 3.01592 12.3155 2.7651C12.5332 2.59112 12.7721 2.50022 13.0045 2.50022C13.0666 2.50011 13.1286 2.50665 13.1893 2.51975C13.8221 2.65733 14.1997 3.49631 14.0138 4.35139C13.9171 4.7962 13.6909 5.17952 13.3771 5.43038C13.1013 5.65092 12.7911 5.73795 12.5034 5.67549C11.8704 5.53811 11.4929 4.6992 11.6788 3.84405Z" fill="black"/>
</svg>
